<?xml version="1.0" standalone="no"?>
<!DOCTYPE svg PUBLIC "-//W3C//DTD SVG 20010904//EN"
 "http://www.w3.org/TR/2001/REC-SVG-20010904/DTD/svg10.dtd">
<svg version="1.0" xmlns="http://www.w3.org/2000/svg"
 width="360.000000pt" height="360.000000pt" viewBox="0 0 360.000000 360.000000"
 preserveAspectRatio="xMidYMid meet">

<g transform="translate(0.000000,360.000000) scale(0.100000,-0.100000)"
fill="#000000" stroke="none">
<path d="M2500 3230 c-69 -13 -152 -47 -216 -89 -37 -24 -342 -323 -825 -807
-649 -652 -773 -781 -813 -846 -205 -334 -175 -630 88 -876 239 -222 534 -231
856 -24 33 21 351 331 813 791 626 625 757 760 757 782 0 32 -50 79 -83 79
-15 0 -256 -234 -807 -783 l-785 -784 -85 -41 c-216 -105 -403 -70 -581 108
-160 161 -194 329 -110 546 55 141 83 171 883 970 871 870 811 819 978 819
118 0 167 -21 256 -110 101 -100 136 -196 114 -308 -27 -140 -8 -118 -813
-924 -536 -537 -754 -749 -791 -769 -60 -33 -142 -38 -191 -12 -93 50 -148
157 -125 245 6 25 18 60 27 77 8 17 330 347 715 732 764 766 720 714 663 773
-52 53 -21 81 -796 -695 -680 -681 -720 -723 -751 -789 -29 -61 -33 -80 -33
-150 0 -68 4 -88 28 -135 41 -79 92 -137 159 -181 112 -72 220 -74 358 -8 59
29 134 100 814 778 560 558 760 764 796 818 113 171 129 358 43 516 -36 66
-140 176 -208 222 -99 65 -230 95 -335 75z"/>
</g>
</svg>
