<?xml version="1.0" standalone="no"?>
<!DOCTYPE svg PUBLIC "-//W3C//DTD SVG 20010904//EN"
 "http://www.w3.org/TR/2001/REC-SVG-20010904/DTD/svg10.dtd">
<svg version="1.0" xmlns="http://www.w3.org/2000/svg"
 width="50.000000pt" height="50.000000pt" viewBox="0 0 50.000000 50.000000"
 preserveAspectRatio="xMidYMid meet">

<g transform="translate(0.000000,50.000000) scale(0.100000,-0.100000)"
fill="#000000" stroke="none">
<path d="M315 428 c-64 -49 -233 -229 -239 -254 -16 -62 44 -122 107 -108 35
7 267 227 254 240 -4 4 -61 -45 -126 -109 -99 -98 -123 -117 -149 -117 -42 0
-76 43 -68 85 8 35 217 252 254 262 28 7 62 -21 62 -51 0 -30 -221 -249 -246
-244 -44 8 -27 40 77 144 57 57 100 107 95 111 -12 12 -216 -200 -216 -225 0
-26 26 -52 52 -52 13 0 61 39 125 102 134 132 152 164 116 206 -28 33 -64 37
-98 10z"/>
</g>
</svg>
