<?xml version="1.0" standalone="no"?>
<!DOCTYPE svg PUBLIC "-//W3C//DTD SVG 20010904//EN"
 "http://www.w3.org/TR/2001/REC-SVG-20010904/DTD/svg10.dtd">
<svg version="1.0" xmlns="http://www.w3.org/2000/svg"
 width="100.000000pt" height="100.000000pt" viewBox="0 0 100.000000 100.000000"
 preserveAspectRatio="xMidYMid meet">

<g transform="translate(0.000000,100.000000) scale(0.100000,-0.100000)"
fill="#000000" stroke="none">
<path d="M660 885 c-44 -20 -442 -415 -476 -472 -38 -63 -47 -105 -33 -155 14
-54 72 -112 127 -129 37 -11 51 -10 100 5 53 17 72 33 280 239 122 122 222
225 222 229 0 5 -7 11 -16 15 -11 4 -79 -57 -237 -214 -122 -122 -232 -226
-244 -232 -64 -32 -148 3 -184 76 -22 45 -20 82 6 133 24 44 458 468 488 475
58 15 127 -43 127 -106 0 -39 -40 -86 -252 -297 -169 -167 -198 -192 -226
-192 -34 0 -62 29 -62 64 0 12 76 96 201 222 143 143 200 207 196 218 -4 9
-10 16 -15 16 -4 0 -101 -94 -215 -208 -205 -206 -207 -209 -207 -251 0 -60
41 -101 101 -101 43 0 45 2 266 222 122 122 229 236 238 254 21 45 19 86 -7
124 -48 69 -114 93 -178 65z"/>
</g>
</svg>
